<?xml version="1.0" standalone="no"?><!DOCTYPE svg PUBLIC "-//W3C//DTD SVG 1.1//EN" "http://www.w3.org/Graphics/SVG/1.1/DTD/svg11.dtd"><svg t="1664631797934" class="icon" viewBox="0 0 1024 1024" version="1.1" xmlns="http://www.w3.org/2000/svg" p-id="3389" xmlns:xlink="http://www.w3.org/1999/xlink" width="200" height="200"><path d="M40.61 224.088c-4.414 0-8.076-3.576-8.076-7.998s3.498-7.998 7.918-7.998h0.156c4.42 0 7.998 3.576 7.998 7.998s-3.576 7.998-7.996 7.998zM72.6 224.088c-4.414 0-8.076-3.576-8.076-7.998s3.498-7.998 7.918-7.998h0.158c4.42 0 7.998 3.576 7.998 7.998s-3.578 7.998-7.998 7.998zM104.59 224.088c-4.414 0-8.076-3.576-8.076-7.998s3.498-7.998 7.918-7.998h0.156c4.42 0 7.998 3.576 7.998 7.998s-3.576 7.998-7.996 7.998z" fill="#1296db" p-id="3390"></path><path d="M839.894 240.084H8.144a7.994 7.994 0 0 1-7.998-7.998v-15.996c0-13.23 10.762-23.994 23.992-23.994h799.764c13.23 0 23.992 10.762 23.992 23.994v15.996a7.994 7.994 0 0 1-8 7.998zM16.14 224.088h815.758v-7.998c0-4.342-3.672-7.998-7.996-7.998H24.138a8.008 8.008 0 0 0-7.998 7.998v7.998z" fill="#1296db" p-id="3391"></path><path d="M839.894 384.04a7.992 7.992 0 0 1-7.996-7.998v-143.956a7.994 7.994 0 0 1 7.996-7.998c4.422 0 8 3.578 8 7.998v143.956a7.994 7.994 0 0 1-8 7.998zM8.144 831.902a7.994 7.994 0 0 1-7.998-7.998V232.086a7.994 7.994 0 0 1 7.998-7.998 7.994 7.994 0 0 1 7.998 7.998v591.818a7.996 7.996 0 0 1-7.998 7.998z" fill="#1296db" p-id="3392"></path><path d="M775.914 831.902H8.144c-4.42 0-7.998-3.578-7.998-7.998s3.578-7.998 7.998-7.998h767.77c4.422 0 8 3.578 8 7.998s-3.578 7.998-8 7.998zM839.894 831.902a7.912 7.912 0 0 1-5.386-2.094 7.996 7.996 0 0 1-0.532-11.292l159.95-175.446a7.96 7.96 0 0 1 11.308-0.516 7.98 7.98 0 0 1 0.516 11.292L845.8 829.292a7.944 7.944 0 0 1-5.906 2.61z" fill="#1296db" p-id="3393"></path><path d="M839.878 831.902a7.83 7.83 0 0 1-3.558-0.844 7.99 7.99 0 0 1-3.578-10.73l79.976-159.952c1.98-3.936 6.762-5.576 10.73-3.578a8.012 8.012 0 0 1 3.578 10.732l-79.976 159.95a8.024 8.024 0 0 1-7.172 4.422z" fill="#1296db" p-id="3394"></path><path d="M919.856 671.952a8.008 8.008 0 0 1-7.84-6.482 8.006 8.006 0 0 1 6.324-9.372l79.976-15.496a8 8 0 0 1 9.372 6.342 7.996 7.996 0 0 1-6.324 9.374l-79.976 15.494c-0.516 0.092-1.032 0.14-1.532 0.14z" fill="#1296db" p-id="3395"></path><path d="M999.848 656.458a7.936 7.936 0 0 1-5.672-2.36l-79.972-80.476a7.978 7.978 0 0 1 0.032-11.308 7.98 7.98 0 0 1 11.308 0.032l79.972 80.476a8.004 8.004 0 0 1-0.032 11.308 8.008 8.008 0 0 1-5.636 2.328z" fill="#1296db" p-id="3396"></path><path d="M919.872 671.952a7.99 7.99 0 0 1-7.996-7.998v-95.97c0-4.42 3.574-7.998 7.996-7.998s7.996 3.578 7.996 7.998v95.97a7.992 7.992 0 0 1-7.996 7.998z" fill="#1296db" p-id="3397"></path><path d="M919.872 671.952a8.016 8.016 0 0 1-6.152-2.874l-79.976-95.972a7.998 7.998 0 0 1 1.032-11.262 8.01 8.01 0 0 1 11.262 1.016l79.976 95.97a8.002 8.002 0 0 1-6.142 13.122z" fill="#1296db" p-id="3398"></path><path d="M759.906 671.952a7.962 7.962 0 0 1-5.11-1.86 8 8 0 0 1-1.032-11.262l79.976-95.97a8.03 8.03 0 0 1 11.278-1.016 7.998 7.998 0 0 1 1.016 11.262l-79.976 95.972a8.008 8.008 0 0 1-6.152 2.874z" fill="#1296db" p-id="3399"></path><path d="M919.872 671.952h-159.95c-4.422 0-8-3.576-8-7.998a7.994 7.994 0 0 1 8-7.996h159.95a7.99 7.99 0 0 1 7.996 7.996 7.992 7.992 0 0 1-7.996 7.998z" fill="#1296db" p-id="3400"></path><path d="M839.894 831.902a8 8 0 0 1-7.152-4.422l-79.976-159.95a7.992 7.992 0 0 1 3.578-10.732c3.938-1.998 8.746-0.358 10.73 3.578l79.976 159.952a8.004 8.004 0 0 1-7.156 11.574zM679.946 656.458a7.99 7.99 0 0 1-5.64-2.328 7.986 7.986 0 0 1-0.032-11.308l79.976-80.476c3.11-3.138 8.168-3.124 11.308-0.032a8.008 8.008 0 0 1 0.032 11.308l-79.976 80.476a7.95 7.95 0 0 1-5.668 2.36z" fill="#1296db" p-id="3401"></path><path d="M759.922 671.952c-0.5 0-1.016-0.046-1.532-0.14l-79.976-15.494a8.004 8.004 0 0 1-6.324-9.374c0.84-4.326 5.028-7.108 9.372-6.342l79.976 15.496a7.992 7.992 0 0 1 6.324 9.372 7.988 7.988 0 0 1-7.84 6.482z" fill="#1296db" p-id="3402"></path><path d="M839.894 831.902a7.982 7.982 0 0 1-5.918-2.61l-159.954-175.446a8.002 8.002 0 0 1 0.532-11.292c3.25-2.984 8.344-2.766 11.292 0.516l159.954 175.446a7.98 7.98 0 0 1-0.516 11.292 7.944 7.944 0 0 1-5.39 2.094zM759.922 671.952c-4.422 0-8-3.576-8-7.998v-95.97a7.994 7.994 0 0 1 8-7.998 7.994 7.994 0 0 1 7.996 7.998v95.97a7.992 7.992 0 0 1-7.996 7.998z" fill="#1296db" p-id="3403"></path><path d="M919.872 575.98h-159.95c-4.422 0-8-3.578-8-7.998s3.578-7.998 8-7.998h159.95c4.422 0 7.996 3.578 7.996 7.998s-3.576 7.998-7.996 7.998zM839.894 527.996a7.994 7.994 0 0 1-7.996-7.998v-95.97a7.994 7.994 0 0 1 7.996-7.998c4.422 0 8 3.578 8 7.998v95.97a7.994 7.994 0 0 1-8 7.998zM727.93 543.99a7.966 7.966 0 0 1-5.652-2.342l-63.98-63.982a7.996 7.996 0 1 1 11.308-11.31l63.98 63.98a8 8 0 0 1-5.656 13.654zM951.864 543.99a7.996 7.996 0 0 1-5.656-13.652l63.996-63.98a7.996 7.996 0 1 1 11.308 11.31l-63.996 63.982a7.986 7.986 0 0 1-5.652 2.34z" fill="#1296db" p-id="3404"></path><path d="M40.134 831.902a7.994 7.994 0 0 1-7.998-7.998V232.086a7.994 7.994 0 0 1 7.998-7.998 7.994 7.994 0 0 1 7.998 7.998v591.818a7.996 7.996 0 0 1-7.998 7.998z" fill="#1296db" p-id="3405"></path><path d="M24.138 304.064H8.144c-4.42 0-7.998-3.578-7.998-7.998s3.578-7.998 7.998-7.998h15.994c4.42 0 7.998 3.578 7.998 7.998s-3.578 7.998-7.998 7.998z" fill="#1296db" p-id="3406"></path><path d="M24.138 352.048H8.144c-4.42 0-7.998-3.576-7.998-7.998s3.578-7.998 7.998-7.998h15.994c4.42 0 7.998 3.576 7.998 7.998s-3.578 7.998-7.998 7.998z" fill="#1296db" p-id="3407"></path><path d="M24.138 400.036H8.144a7.994 7.994 0 0 1-7.998-7.998 7.994 7.994 0 0 1 7.998-7.998h15.994a7.994 7.994 0 0 1 7.998 7.998 7.994 7.994 0 0 1-7.998 7.998z" fill="#1296db" p-id="3408"></path><path d="M24.138 448.02H8.144a7.994 7.994 0 0 1-7.998-7.998 7.994 7.994 0 0 1 7.998-7.998h15.994a7.994 7.994 0 0 1 7.998 7.998 7.994 7.994 0 0 1-7.998 7.998z" fill="#1296db" p-id="3409"></path><path d="M24.138 496.004H8.144a7.994 7.994 0 0 1-7.998-7.998 7.994 7.994 0 0 1 7.998-7.998h15.994a7.994 7.994 0 0 1 7.998 7.998 7.994 7.994 0 0 1-7.998 7.998z" fill="#1296db" p-id="3410"></path><path d="M24.138 543.99H8.144a7.994 7.994 0 0 1-7.998-7.998 7.992 7.992 0 0 1 7.998-7.996h15.994a7.992 7.992 0 0 1 7.998 7.996 7.994 7.994 0 0 1-7.998 7.998z" fill="#1296db" p-id="3411"></path><path d="M24.138 591.976H8.144c-4.42 0-7.998-3.578-7.998-7.998s3.578-7.998 7.998-7.998h15.994c4.42 0 7.998 3.578 7.998 7.998s-3.578 7.998-7.998 7.998z" fill="#1296db" p-id="3412"></path><path d="M24.138 639.96H8.144c-4.42 0-7.998-3.578-7.998-7.998s3.578-7.998 7.998-7.998h15.994c4.42 0 7.998 3.578 7.998 7.998s-3.578 7.998-7.998 7.998z" fill="#1296db" p-id="3413"></path><path d="M24.138 687.946H8.144a7.992 7.992 0 0 1-7.998-7.996 7.994 7.994 0 0 1 7.998-7.998h15.994a7.994 7.994 0 0 1 7.998 7.998 7.992 7.992 0 0 1-7.998 7.996z" fill="#1296db" p-id="3414"></path><path d="M24.138 735.932H8.144a7.994 7.994 0 0 1-7.998-7.998 7.992 7.992 0 0 1 7.998-7.996h15.994a7.992 7.992 0 0 1 7.998 7.996 7.994 7.994 0 0 1-7.998 7.998z" fill="#1296db" p-id="3415"></path><path d="M24.138 783.916H8.144a7.994 7.994 0 0 1-7.998-7.998 7.992 7.992 0 0 1 7.998-7.996h15.994a7.992 7.992 0 0 1 7.998 7.996 7.994 7.994 0 0 1-7.998 7.998z" fill="#1296db" p-id="3416"></path><path d="M152.098 304.064h-63.98c-4.42 0-7.998-3.578-7.998-7.998s3.578-7.998 7.998-7.998h63.98c4.42 0 7.998 3.578 7.998 7.998s-3.576 7.998-7.998 7.998zM424.016 352.048H216.08c-4.42 0-7.998-3.576-7.998-7.998s3.578-7.998 7.998-7.998h207.936c4.42 0 7.998 3.576 7.998 7.998s-3.578 7.998-7.998 7.998zM184.088 352.048H104.114c-4.42 0-7.998-3.576-7.998-7.998s3.576-7.998 7.998-7.998h79.976c4.42 0 7.998 3.576 7.998 7.998s-3.58 7.998-8 7.998zM615.964 400.036H408.02a7.994 7.994 0 0 1-7.998-7.998 7.994 7.994 0 0 1 7.998-7.998h207.944a7.992 7.992 0 0 1 7.996 7.998 7.992 7.992 0 0 1-7.996 7.998zM376.03 400.036H120.108a7.994 7.994 0 0 1-7.998-7.998 7.994 7.994 0 0 1 7.998-7.998h255.922a7.994 7.994 0 0 1 7.998 7.998 7.994 7.994 0 0 1-7.998 7.998zM168.094 496.004H120.108a7.994 7.994 0 0 1-7.998-7.998 7.994 7.994 0 0 1 7.998-7.998h47.986a7.994 7.994 0 0 1 7.998 7.998 7.994 7.994 0 0 1-7.998 7.998zM421.516 496.004H200.084a7.994 7.994 0 0 1-7.998-7.998 7.994 7.994 0 0 1 7.998-7.998h221.432a7.994 7.994 0 0 1 7.998 7.998 7.994 7.994 0 0 1-7.998 7.998zM168.094 687.946H120.108a7.992 7.992 0 0 1-7.998-7.996 7.994 7.994 0 0 1 7.998-7.998h47.986a7.994 7.994 0 0 1 7.998 7.998 7.994 7.994 0 0 1-7.998 7.996zM421.516 687.946H200.084a7.992 7.992 0 0 1-7.998-7.996 7.992 7.992 0 0 1 7.998-7.998h221.432a7.994 7.994 0 0 1 7.998 7.998 7.992 7.992 0 0 1-7.998 7.996zM487.996 448.02H136.104a7.994 7.994 0 0 1-7.998-7.998 7.994 7.994 0 0 1 7.998-7.998h351.892a7.994 7.994 0 0 1 7.998 7.998 7.994 7.994 0 0 1-7.998 7.998zM472 543.99h-143.956a7.994 7.994 0 0 1-7.998-7.998 7.992 7.992 0 0 1 7.998-7.996H472a7.992 7.992 0 0 1 7.998 7.996 7.994 7.994 0 0 1-7.998 7.998zM360.036 591.976H104.114c-4.42 0-7.998-3.578-7.998-7.998s3.576-7.998 7.998-7.998h255.922c4.42 0 7.998 3.578 7.998 7.998s-3.578 7.998-7.998 7.998zM280.06 735.932H104.114a7.994 7.994 0 0 1-7.998-7.998 7.992 7.992 0 0 1 7.998-7.996h175.946a7.992 7.992 0 0 1 7.998 7.996 7.994 7.994 0 0 1-7.998 7.998zM535.988 639.96H312.05c-4.42 0-7.998-3.578-7.998-7.998s3.578-7.998 7.998-7.998h223.938c4.422 0 8 3.578 8 7.998s-3.578 7.998-8 7.998zM280.06 639.96H120.108c-4.42 0-7.998-3.578-7.998-7.998s3.578-7.998 7.998-7.998h159.952c4.42 0 7.998 3.578 7.998 7.998s-3.578 7.998-7.998 7.998zM152.098 783.916h-63.98a7.994 7.994 0 0 1-7.998-7.998 7.992 7.992 0 0 1 7.998-7.996h63.98a7.992 7.992 0 0 1 7.998 7.996 7.992 7.992 0 0 1-7.998 7.998zM487.996 591.976h-95.97c-4.42 0-7.998-3.578-7.998-7.998s3.576-7.998 7.998-7.998h95.97c4.422 0 7.998 3.578 7.998 7.998s-3.578 7.998-7.998 7.998zM296.054 543.99H120.108a7.994 7.994 0 0 1-7.998-7.998 7.992 7.992 0 0 1 7.998-7.996h175.946a7.992 7.992 0 0 1 7.998 7.996 7.992 7.992 0 0 1-7.998 7.998z" fill="#1296db" p-id="3417"></path></svg>